<svg width="204" height="193" viewBox="0 0 204 193" fill="none" xmlns="http://www.w3.org/2000/svg">
<g opacity="0.4" filter="url(#filter0_f_4_80)">
<path d="M108.69 53.3063C101.92 62.4993 100.746 75.0453 106.718 85.3905C112.691 95.7358 124.143 100.992 135.49 99.7247C133.077 103 129.954 105.85 126.19 108.023C111.864 116.295 93.6831 111.625 85.5819 97.5936C77.4808 83.5621 82.5274 65.482 96.8537 57.2107C100.617 55.0377 104.647 53.7579 108.69 53.3063Z" fill="#FFEE94"/>
</g>
<g filter="url(#filter1_i_4_80)">
<path d="M92.3259 68.0872C92.3629 67.8674 92.3822 67.6412 92.3822 67.4103C92.3822 65.2507 90.6922 63.5 88.6074 63.5C87.0576 63.5 85.7259 64.4676 85.1446 65.8514C84.6736 65.4302 84.0625 65.1759 83.3946 65.1759C81.9055 65.1759 80.6983 66.4403 80.6983 68C80.6983 68.0869 80.7021 68.1728 80.7094 68.2576C79.9932 68.6211 79.5 69.3836 79.5 70.2655C79.5 71.4996 80.4657 72.5 81.657 72.5H91.843C93.0343 72.5 94 71.4996 94 70.2655C94 69.2034 93.2847 68.3144 92.3259 68.0872Z" fill="url(#paint0_linear_4_80)"/>
</g>
<g filter="url(#filter2_i_4_80)">
<path d="M127.38 92.3781C127.548 91.4253 127.636 90.4452 127.636 89.4448C127.636 80.0865 119.944 72.5 110.455 72.5C103.4 72.5 97.3386 76.6928 94.6925 82.6894C92.5488 80.8641 89.7671 79.7621 86.7273 79.7621C79.9492 79.7621 74.4545 85.2412 74.4545 92C74.4545 92.3764 74.4716 92.7488 74.5049 93.1165C71.2448 94.6913 69 97.9957 69 101.817C69 107.165 73.3957 111.5 78.8182 111.5H125.182C130.604 111.5 135 107.165 135 101.817C135 97.2148 131.744 93.3624 127.38 92.3781Z" fill="url(#paint1_linear_4_80)"/>
</g>
<g filter="url(#filter3_i_4_80)">
<path d="M137.591 67.5138C137.591 68.1935 137.532 68.8595 137.42 69.5069C140.329 70.1757 142.5 72.7934 142.5 75.9207C142.5 79.5543 139.57 82.5 135.955 82.5H126.132C123.442 76.6047 117.435 72.5 110.455 72.5C105.866 72.5 101.698 74.2736 98.6166 77.1635C98.5401 76.761 98.5 76.3456 98.5 75.9207C98.5 73.324 99.9965 71.0787 102.17 70.0086C102.148 69.7588 102.136 69.5057 102.136 69.25C102.136 64.6575 105.799 60.9345 110.318 60.9345C112.345 60.9345 114.199 61.6833 115.628 62.9236C117.392 58.8489 121.433 56 126.136 56C132.463 56 137.591 61.1549 137.591 67.5138Z" fill="url(#paint2_linear_4_80)"/>
</g>
<g filter="url(#filter4_i_4_80)">
<path d="M104.697 63.2073C105.552 61.0831 106.678 59.0553 108.059 57.1802C104.369 57.5924 100.69 58.7606 97.2544 60.7442C89.7763 65.0617 85.0681 72.3069 83.7899 80.1147C84.731 79.8842 85.7148 79.762 86.7273 79.762C89.7671 79.762 92.5488 80.864 94.6924 82.6893C95.6176 80.5928 96.9601 78.7168 98.6166 77.1634C98.5401 76.7609 98.5 76.3455 98.5 75.9206C98.5 73.3239 99.9965 71.0786 102.17 70.0085C102.148 69.7587 102.136 69.5056 102.136 69.2499C102.136 66.8697 103.12 64.7231 104.697 63.2073Z" fill="url(#paint3_linear_4_80)"/>
</g>
<path d="M78.8182 122.182H81.4799L79.7647 120.39C79.4523 120.064 79.4634 119.547 79.7898 119.233C80.1146 118.922 80.6336 118.932 80.9463 119.259L83.7453 122.182H86.1818V119.637L83.2711 116.957C82.9387 116.651 82.9171 116.133 83.2231 115.801C83.5292 115.469 84.0469 115.448 84.3793 115.754L86.1818 117.413V114.818C86.1818 114.366 86.5482 114 87 114C87.4519 114 87.8182 114.366 87.8182 114.818V117.48L89.6088 115.765C89.9352 115.452 90.453 115.463 90.7658 115.79C91.0781 116.116 91.067 116.633 90.741 116.946L87.8182 119.746V122.182H90.6966L93.4955 119.259C93.8079 118.932 94.3262 118.922 94.6521 119.233C94.9785 119.547 94.9897 120.064 94.6772 120.39L92.962 122.182H95.1818C95.6337 122.182 96 122.548 96 123C96 123.452 95.6337 123.818 95.1818 123.818H93.0295L94.6885 125.62C94.9945 125.953 94.9729 126.47 94.6405 126.776C94.4831 126.921 94.2846 126.993 94.0868 126.993C93.8659 126.993 93.6458 126.904 93.4843 126.729L90.8049 123.818H87.8182V126.696L90.741 129.497C91.0673 129.809 91.0781 130.327 90.7658 130.653C90.453 130.98 89.9352 130.992 89.6088 130.678L87.8182 128.962V131.182C87.8182 131.634 87.4519 132 87 132C86.5482 132 86.1818 131.634 86.1818 131.182V129.029L84.3793 130.689C84.2223 130.833 84.0238 130.905 83.8256 130.905C83.6046 130.905 83.3845 130.817 83.2235 130.642C82.9171 130.309 82.9387 129.791 83.2711 129.485L86.1818 126.805V123.818H83.637L80.9576 126.729C80.7961 126.904 80.576 126.993 80.3551 126.993C80.1574 126.993 79.9584 126.921 79.8014 126.776C79.469 126.47 79.4474 125.953 79.7534 125.62L81.4124 123.818H78.8182C78.3664 123.818 78 123.452 78 123C78 122.548 78.3664 122.182 78.8182 122.182Z" fill="url(#paint4_linear_4_80)"/>
<path d="M94.8182 133.182H97.4799L95.7647 131.39C95.4523 131.064 95.4634 130.547 95.7898 130.233C96.1146 129.922 96.6336 129.932 96.9463 130.259L99.7453 133.182H102.182V130.637L99.2711 127.957C98.9387 127.651 98.9171 127.133 99.2231 126.801C99.5292 126.469 100.047 126.448 100.379 126.754L102.182 128.413V125.818C102.182 125.366 102.548 125 103 125C103.452 125 103.818 125.366 103.818 125.818V128.48L105.609 126.765C105.935 126.452 106.453 126.463 106.766 126.79C107.078 127.116 107.067 127.633 106.741 127.946L103.818 130.746V133.182H106.697L109.496 130.259C109.808 129.932 110.326 129.922 110.652 130.233C110.979 130.547 110.99 131.064 110.677 131.39L108.962 133.182H111.182C111.634 133.182 112 133.548 112 134C112 134.452 111.634 134.818 111.182 134.818H109.03L110.688 136.62C110.994 136.953 110.973 137.47 110.641 137.776C110.483 137.921 110.285 137.993 110.087 137.993C109.866 137.993 109.646 137.904 109.484 137.729L106.805 134.818H103.818V137.696L106.741 140.497C107.067 140.809 107.078 141.327 106.766 141.653C106.453 141.98 105.935 141.992 105.609 141.678L103.818 139.962V142.182C103.818 142.634 103.452 143 103 143C102.548 143 102.182 142.634 102.182 142.182V140.029L100.379 141.689C100.222 141.833 100.024 141.905 99.8256 141.905C99.6046 141.905 99.3845 141.817 99.2235 141.642C98.9171 141.309 98.9387 140.791 99.2711 140.485L102.182 137.805V134.818H99.637L96.9576 137.729C96.7961 137.904 96.576 137.993 96.3551 137.993C96.1574 137.993 95.9584 137.921 95.8014 137.776C95.469 137.47 95.4474 136.953 95.7534 136.62L97.4124 134.818H94.8182C94.3664 134.818 94 134.452 94 134C94 133.548 94.3664 133.182 94.8182 133.182Z" fill="url(#paint5_linear_4_80)"/>
<path d="M108.818 120.182H111.48L109.765 118.39C109.452 118.064 109.463 117.547 109.79 117.233C110.115 116.922 110.634 116.932 110.946 117.259L113.745 120.182H116.182V117.637L113.271 114.957C112.939 114.651 112.917 114.133 113.223 113.801C113.529 113.469 114.047 113.448 114.379 113.754L116.182 115.413V112.818C116.182 112.366 116.548 112 117 112C117.452 112 117.818 112.366 117.818 112.818V115.48L119.609 113.765C119.935 113.452 120.453 113.463 120.766 113.79C121.078 114.116 121.067 114.633 120.741 114.946L117.818 117.746V120.182H120.697L123.496 117.259C123.808 116.932 124.326 116.922 124.652 117.233C124.979 117.547 124.99 118.064 124.677 118.39L122.962 120.182H125.182C125.634 120.182 126 120.548 126 121C126 121.452 125.634 121.818 125.182 121.818H123.03L124.688 123.62C124.994 123.953 124.973 124.47 124.641 124.776C124.483 124.921 124.285 124.993 124.087 124.993C123.866 124.993 123.646 124.904 123.484 124.729L120.805 121.818H117.818V124.696L120.741 127.497C121.067 127.809 121.078 128.327 120.766 128.653C120.453 128.98 119.935 128.992 119.609 128.678L117.818 126.962V129.182C117.818 129.634 117.452 130 117 130C116.548 130 116.182 129.634 116.182 129.182V127.029L114.379 128.689C114.222 128.833 114.024 128.905 113.826 128.905C113.605 128.905 113.385 128.817 113.224 128.642C112.917 128.309 112.939 127.791 113.271 127.485L116.182 124.805V121.818H113.637L110.958 124.729C110.796 124.904 110.576 124.993 110.355 124.993C110.157 124.993 109.958 124.921 109.801 124.776C109.469 124.47 109.447 123.953 109.753 123.62L111.412 121.818H108.818C108.366 121.818 108 121.452 108 121C108 120.548 108.366 120.182 108.818 120.182Z" fill="url(#paint6_linear_4_80)"/>
<defs>
<filter id="filter0_f_4_80" x="28.7166" y="0.306305" width="159.773" height="164.807" filterUnits="userSpaceOnUse" color-interpolation-filters="sRGB">
<feFlood flood-opacity="0" result="BackgroundImageFix"/>
<feBlend mode="normal" in="SourceGraphic" in2="BackgroundImageFix" result="shape"/>
<feGaussianBlur stdDeviation="26.5" result="effect1_foregroundBlur_4_80"/>
</filter>
<filter id="filter1_i_4_80" x="79.5" y="63.5" width="14.5" height="19" filterUnits="userSpaceOnUse" color-interpolation-filters="sRGB">
<feFlood flood-opacity="0" result="BackgroundImageFix"/>
<feBlend mode="normal" in="SourceGraphic" in2="BackgroundImageFix" result="shape"/>
<feColorMatrix in="SourceAlpha" type="matrix" values="0 0 0 0 0 0 0 0 0 0 0 0 0 0 0 0 0 0 127 0" result="hardAlpha"/>
<feOffset dy="11"/>
<feGaussianBlur stdDeviation="5"/>
<feComposite in2="hardAlpha" operator="arithmetic" k2="-1" k3="1"/>
<feColorMatrix type="matrix" values="0 0 0 0 1 0 0 0 0 1 0 0 0 0 1 0 0 0 1 0"/>
<feBlend mode="normal" in2="shape" result="effect1_innerShadow_4_80"/>
</filter>
<filter id="filter2_i_4_80" x="69" y="72.5" width="66" height="49" filterUnits="userSpaceOnUse" color-interpolation-filters="sRGB">
<feFlood flood-opacity="0" result="BackgroundImageFix"/>
<feBlend mode="normal" in="SourceGraphic" in2="BackgroundImageFix" result="shape"/>
<feColorMatrix in="SourceAlpha" type="matrix" values="0 0 0 0 0 0 0 0 0 0 0 0 0 0 0 0 0 0 127 0" result="hardAlpha"/>
<feOffset dy="11"/>
<feGaussianBlur stdDeviation="5"/>
<feComposite in2="hardAlpha" operator="arithmetic" k2="-1" k3="1"/>
<feColorMatrix type="matrix" values="0 0 0 0 1 0 0 0 0 1 0 0 0 0 1 0 0 0 1 0"/>
<feBlend mode="normal" in2="shape" result="effect1_innerShadow_4_80"/>
</filter>
<filter id="filter3_i_4_80" x="98.5" y="56" width="44" height="36.5" filterUnits="userSpaceOnUse" color-interpolation-filters="sRGB">
<feFlood flood-opacity="0" result="BackgroundImageFix"/>
<feBlend mode="normal" in="SourceGraphic" in2="BackgroundImageFix" result="shape"/>
<feColorMatrix in="SourceAlpha" type="matrix" values="0 0 0 0 0 0 0 0 0 0 0 0 0 0 0 0 0 0 127 0" result="hardAlpha"/>
<feOffset dy="11"/>
<feGaussianBlur stdDeviation="5"/>
<feComposite in2="hardAlpha" operator="arithmetic" k2="-1" k3="1"/>
<feColorMatrix type="matrix" values="0 0 0 0 1 0 0 0 0 1 0 0 0 0 1 0 0 0 1 0"/>
<feBlend mode="normal" in2="shape" result="effect1_innerShadow_4_80"/>
</filter>
<filter id="filter4_i_4_80" x="83.7899" y="57.1802" width="24.2691" height="29.5091" filterUnits="userSpaceOnUse" color-interpolation-filters="sRGB">
<feFlood flood-opacity="0" result="BackgroundImageFix"/>
<feBlend mode="normal" in="SourceGraphic" in2="BackgroundImageFix" result="shape"/>
<feColorMatrix in="SourceAlpha" type="matrix" values="0 0 0 0 0 0 0 0 0 0 0 0 0 0 0 0 0 0 127 0" result="hardAlpha"/>
<feOffset dy="4"/>
<feGaussianBlur stdDeviation="4"/>
<feComposite in2="hardAlpha" operator="arithmetic" k2="-1" k3="1"/>
<feColorMatrix type="matrix" values="0 0 0 0 1 0 0 0 0 1 0 0 0 0 1 0 0 0 0.55 0"/>
<feBlend mode="normal" in2="shape" result="effect1_innerShadow_4_80"/>
</filter>
<linearGradient id="paint0_linear_4_80" x1="80.4223" y1="71.6964" x2="95.5118" y2="60.9041" gradientUnits="userSpaceOnUse">
<stop stop-color="white" stop-opacity="0.65"/>
<stop offset="1" stop-color="white" stop-opacity="0.58"/>
</linearGradient>
<linearGradient id="paint1_linear_4_80" x1="73.1979" y1="108.018" x2="139.56" y2="58.1619" gradientUnits="userSpaceOnUse">
<stop stop-color="white" stop-opacity="0.65"/>
<stop offset="1" stop-color="white" stop-opacity="0.58"/>
</linearGradient>
<linearGradient id="paint2_linear_4_80" x1="139.701" y1="80.1339" x2="94.8549" y2="47.0779" gradientUnits="userSpaceOnUse">
<stop stop-color="white" stop-opacity="0.65"/>
<stop offset="1" stop-color="white" stop-opacity="0.58"/>
</linearGradient>
<linearGradient id="paint3_linear_4_80" x1="109.405" y1="52.7298" x2="99.5931" y2="112.142" gradientUnits="userSpaceOnUse">
<stop stop-color="#FFEE94"/>
<stop offset="1" stop-color="#FF9900"/>
</linearGradient>
<linearGradient id="paint4_linear_4_80" x1="87" y1="114" x2="87" y2="132" gradientUnits="userSpaceOnUse">
<stop stop-color="#87CEEB"/>
<stop offset="1" stop-color="#5A8CD7"/>
</linearGradient>
<linearGradient id="paint5_linear_4_80" x1="103" y1="125" x2="103" y2="143" gradientUnits="userSpaceOnUse">
<stop stop-color="#87CEEB"/>
<stop offset="1" stop-color="#5A8CD7"/>
</linearGradient>
<linearGradient id="paint6_linear_4_80" x1="117" y1="112" x2="117" y2="130" gradientUnits="userSpaceOnUse">
<stop stop-color="#87CEEB"/>
<stop offset="1" stop-color="#5A8CD7"/>
</linearGradient>
</defs>
</svg>
