<svg width="204" height="167" viewBox="0 0 204 167" fill="none" xmlns="http://www.w3.org/2000/svg">
<g clip-path="url(#clip0_7_121)">
<path d="M84.8182 117.182H87.4799L85.7647 115.39C85.4523 115.064 85.4634 114.547 85.7898 114.233C86.1146 113.922 86.6336 113.932 86.9463 114.259L89.7453 117.182H92.1818V114.637L89.2711 111.957C88.9387 111.651 88.9171 111.133 89.2231 110.801C89.5292 110.469 90.0469 110.448 90.3793 110.754L92.1818 112.413V109.818C92.1818 109.366 92.5482 109 93 109C93.4519 109 93.8182 109.366 93.8182 109.818V112.48L95.6088 110.765C95.9352 110.452 96.453 110.463 96.7658 110.79C97.0781 111.116 97.067 111.633 96.741 111.946L93.8182 114.746V117.182H96.6966L99.4955 114.259C99.8079 113.932 100.326 113.922 100.652 114.233C100.979 114.547 100.99 115.064 100.677 115.39L98.962 117.182H101.182C101.634 117.182 102 117.548 102 118C102 118.452 101.634 118.818 101.182 118.818H99.0295L100.688 120.62C100.994 120.953 100.973 121.47 100.641 121.776C100.483 121.921 100.285 121.993 100.087 121.993C99.8659 121.993 99.6458 121.904 99.4843 121.729L96.8049 118.818H93.8182V121.696L96.741 124.497C97.0673 124.809 97.0781 125.327 96.7658 125.653C96.453 125.98 95.9352 125.992 95.6088 125.678L93.8182 123.962V126.182C93.8182 126.634 93.4519 127 93 127C92.5482 127 92.1818 126.634 92.1818 126.182V124.029L90.3793 125.689C90.2223 125.833 90.0238 125.905 89.8256 125.905C89.6046 125.905 89.3845 125.817 89.2235 125.642C88.9171 125.309 88.9387 124.791 89.2711 124.485L92.1818 121.805V118.818H89.637L86.9576 121.729C86.7961 121.904 86.576 121.993 86.3551 121.993C86.1574 121.993 85.9584 121.921 85.8014 121.776C85.469 121.47 85.4474 120.953 85.7534 120.62L87.4124 118.818H84.8182C84.3664 118.818 84 118.452 84 118C84 117.548 84.3664 117.182 84.8182 117.182Z" fill="url(#paint0_linear_7_121)"/>
<g filter="url(#filter0_i_7_121)">
<path d="M82.8847 28.5759C82.9423 28.2333 82.9724 27.8808 82.9724 27.5209C82.9724 24.155 80.3384 21.4264 77.0891 21.4264C74.6736 21.4264 72.598 22.9345 71.692 25.0912C70.9579 24.4348 70.0055 24.0384 68.9645 24.0384C66.6436 24.0384 64.7621 26.0091 64.7621 28.44C64.7621 28.5754 64.768 28.7093 64.7794 28.8415C63.6631 29.408 62.8945 30.5965 62.8945 31.971C62.8945 33.8944 64.3996 35.4536 66.2563 35.4536H82.132C83.9888 35.4536 85.4939 33.8944 85.4939 31.971C85.4939 30.3156 84.3791 28.93 82.8847 28.5759Z" fill="url(#paint1_linear_7_121)"/>
</g>
<g filter="url(#filter1_i_7_121)">
<path d="M137.519 66.4353C137.781 64.9503 137.918 63.4227 137.918 61.8635C137.918 47.2778 125.93 35.4536 111.14 35.4536C100.145 35.4536 90.6974 41.9885 86.5732 51.3347C83.2321 48.4898 78.8966 46.7722 74.1588 46.7722C63.5946 46.7722 55.0306 55.3118 55.0306 65.846C55.0306 66.4326 55.0573 67.0131 55.1092 67.5862C50.028 70.0406 46.5293 75.1908 46.5293 81.1469C46.5293 89.4818 53.3804 96.2384 61.8318 96.2384H134.094C142.544 96.2384 149.396 89.4818 149.396 81.1469C149.396 73.9737 144.321 67.9694 137.519 66.4353Z" fill="url(#paint2_linear_7_121)"/>
</g>
<g filter="url(#filter2_i_7_121)">
<path d="M138.091 40.5138C138.091 41.1935 138.032 41.8595 137.92 42.5069C140.829 43.1757 143 45.7934 143 48.9207C143 52.5543 140.07 55.5 136.455 55.5H126.632C123.942 49.6047 117.935 45.5 110.955 45.5C106.366 45.5 102.198 47.2736 99.1166 50.1635C99.0401 49.761 99 49.3456 99 48.9207C99 46.324 100.497 44.0787 102.67 43.0086C102.648 42.7588 102.636 42.5057 102.636 42.25C102.636 37.6575 106.299 33.9345 110.818 33.9345C112.845 33.9345 114.699 34.6833 116.128 35.9236C117.892 31.8489 121.933 29 126.636 29C132.963 29 138.091 34.1549 138.091 40.5138Z" fill="url(#paint3_linear_7_121)"/>
</g>
<g filter="url(#filter3_f_7_121)">
<path d="M130.064 92.2571H64.3262C61.227 92.2571 58.7145 94.7696 58.7145 97.8689C58.7145 100.968 61.227 103.481 64.3262 103.481H130.064C133.163 103.481 135.676 100.968 135.676 97.8689C135.676 94.7696 133.163 92.2571 130.064 92.2571Z" fill="#FFED8D"/>
</g>
<g filter="url(#filter4_i_7_121)">
<path d="M127.287 96.2384H112.052L105.428 113.915H117.351L111.831 135.982L131.924 107.031H123.092L127.287 96.2384Z" fill="url(#paint4_linear_7_121)"/>
</g>
<path d="M63.8182 106.182H66.4799L64.7647 104.39C64.4523 104.064 64.4634 103.547 64.7898 103.233C65.1146 102.922 65.6336 102.932 65.9463 103.259L68.7453 106.182H71.1818V103.637L68.2711 100.957C67.9387 100.651 67.9171 100.133 68.2231 99.8009C68.5292 99.4686 69.0469 99.4478 69.3793 99.7538L71.1818 101.413V98.8182C71.1818 98.3659 71.5482 98 72 98C72.4519 98 72.8182 98.3659 72.8182 98.8182V101.48L74.6088 99.765C74.9352 99.4518 75.453 99.463 75.7658 99.7898C76.0781 100.116 76.067 100.633 75.741 100.946L72.8182 103.746V106.182H75.6966L78.4955 103.259C78.8079 102.932 79.3262 102.922 79.6521 103.233C79.9785 103.547 79.9897 104.064 79.6772 104.39L77.962 106.182H80.1818C80.6337 106.182 81 106.548 81 107C81 107.452 80.6337 107.818 80.1818 107.818H78.0295L79.6885 109.62C79.9945 109.953 79.9729 110.47 79.6405 110.776C79.4831 110.921 79.2846 110.993 79.0868 110.993C78.8659 110.993 78.6458 110.904 78.4843 110.729L75.8049 107.818H72.8182V110.696L75.741 113.497C76.0673 113.809 76.0781 114.327 75.7658 114.653C75.453 114.98 74.9352 114.992 74.6088 114.678L72.8182 112.962V115.182C72.8182 115.634 72.4519 116 72 116C71.5482 116 71.1818 115.634 71.1818 115.182V113.029L69.3793 114.689C69.2223 114.833 69.0238 114.905 68.8256 114.905C68.6046 114.905 68.3845 114.817 68.2235 114.642C67.9171 114.309 67.9387 113.791 68.2711 113.485L71.1818 110.805V107.818H68.637L65.9576 110.729C65.7961 110.904 65.576 110.993 65.3551 110.993C65.1574 110.993 64.9584 110.921 64.8014 110.776C64.469 110.47 64.4474 109.953 64.7534 109.62L66.4124 107.818H63.8182C63.3664 107.818 63 107.452 63 107C63 106.548 63.3664 106.182 63.8182 106.182Z" fill="url(#paint5_linear_7_121)"/>
</g>
<defs>
<filter id="filter0_i_7_121" x="62.8945" y="21.4264" width="22.5995" height="29.6131" filterUnits="userSpaceOnUse" color-interpolation-filters="sRGB">
<feFlood flood-opacity="0" result="BackgroundImageFix"/>
<feBlend mode="normal" in="SourceGraphic" in2="BackgroundImageFix" result="shape"/>
<feColorMatrix in="SourceAlpha" type="matrix" values="0 0 0 0 0 0 0 0 0 0 0 0 0 0 0 0 0 0 127 0" result="hardAlpha"/>
<feOffset dy="17.1444"/>
<feGaussianBlur stdDeviation="7.79292"/>
<feComposite in2="hardAlpha" operator="arithmetic" k2="-1" k3="1"/>
<feColorMatrix type="matrix" values="0 0 0 0 1 0 0 0 0 1 0 0 0 0 1 0 0 0 1 0"/>
<feBlend mode="normal" in2="shape" result="effect1_innerShadow_7_121"/>
</filter>
<filter id="filter1_i_7_121" x="46.5293" y="35.4536" width="102.866" height="76.3706" filterUnits="userSpaceOnUse" color-interpolation-filters="sRGB">
<feFlood flood-opacity="0" result="BackgroundImageFix"/>
<feBlend mode="normal" in="SourceGraphic" in2="BackgroundImageFix" result="shape"/>
<feColorMatrix in="SourceAlpha" type="matrix" values="0 0 0 0 0 0 0 0 0 0 0 0 0 0 0 0 0 0 127 0" result="hardAlpha"/>
<feOffset dy="17.1444"/>
<feGaussianBlur stdDeviation="7.79292"/>
<feComposite in2="hardAlpha" operator="arithmetic" k2="-1" k3="1"/>
<feColorMatrix type="matrix" values="0 0 0 0 1 0 0 0 0 1 0 0 0 0 1 0 0 0 1 0"/>
<feBlend mode="normal" in2="shape" result="effect1_innerShadow_7_121"/>
</filter>
<filter id="filter2_i_7_121" x="99" y="29" width="44" height="36.5" filterUnits="userSpaceOnUse" color-interpolation-filters="sRGB">
<feFlood flood-opacity="0" result="BackgroundImageFix"/>
<feBlend mode="normal" in="SourceGraphic" in2="BackgroundImageFix" result="shape"/>
<feColorMatrix in="SourceAlpha" type="matrix" values="0 0 0 0 0 0 0 0 0 0 0 0 0 0 0 0 0 0 127 0" result="hardAlpha"/>
<feOffset dy="11"/>
<feGaussianBlur stdDeviation="5"/>
<feComposite in2="hardAlpha" operator="arithmetic" k2="-1" k3="1"/>
<feColorMatrix type="matrix" values="0 0 0 0 1 0 0 0 0 1 0 0 0 0 1 0 0 0 1 0"/>
<feBlend mode="normal" in2="shape" result="effect1_innerShadow_7_121"/>
</filter>
<filter id="filter3_f_7_121" x="-61.2964" y="-27.7538" width="316.983" height="251.245" filterUnits="userSpaceOnUse" color-interpolation-filters="sRGB">
<feFlood flood-opacity="0" result="BackgroundImageFix"/>
<feBlend mode="normal" in="SourceGraphic" in2="BackgroundImageFix" result="shape"/>
<feGaussianBlur stdDeviation="60.0054" result="effect1_foregroundBlur_7_121"/>
</filter>
<filter id="filter4_i_7_121" x="102.311" y="96.2384" width="29.6131" height="39.7439" filterUnits="userSpaceOnUse" color-interpolation-filters="sRGB">
<feFlood flood-opacity="0" result="BackgroundImageFix"/>
<feBlend mode="normal" in="SourceGraphic" in2="BackgroundImageFix" result="shape"/>
<feColorMatrix in="SourceAlpha" type="matrix" values="0 0 0 0 0 0 0 0 0 0 0 0 0 0 0 0 0 0 127 0" result="hardAlpha"/>
<feOffset dx="-3.11717"/>
<feGaussianBlur stdDeviation="7.01362"/>
<feComposite in2="hardAlpha" operator="arithmetic" k2="-1" k3="1"/>
<feColorMatrix type="matrix" values="0 0 0 0 1 0 0 0 0 1 0 0 0 0 1 0 0 0 0.5 0"/>
<feBlend mode="normal" in2="shape" result="effect1_innerShadow_7_121"/>
</filter>
<linearGradient id="paint0_linear_7_121" x1="93" y1="109" x2="93" y2="127" gradientUnits="userSpaceOnUse">
<stop stop-color="#87CEEB"/>
<stop offset="1" stop-color="#5A8CD7"/>
</linearGradient>
<linearGradient id="paint1_linear_7_121" x1="64.3319" y1="34.2012" x2="87.8502" y2="17.3805" gradientUnits="userSpaceOnUse">
<stop stop-color="white" stop-opacity="0.65"/>
<stop offset="1" stop-color="white" stop-opacity="0.58"/>
</linearGradient>
<linearGradient id="paint2_linear_7_121" x1="53.0721" y1="90.8112" x2="156.503" y2="13.1065" gradientUnits="userSpaceOnUse">
<stop stop-color="white" stop-opacity="0.65"/>
<stop offset="1" stop-color="white" stop-opacity="0.58"/>
</linearGradient>
<linearGradient id="paint3_linear_7_121" x1="140.201" y1="53.1339" x2="95.3549" y2="20.0779" gradientUnits="userSpaceOnUse">
<stop stop-color="white" stop-opacity="0.65"/>
<stop offset="1" stop-color="white" stop-opacity="0.58"/>
</linearGradient>
<linearGradient id="paint4_linear_7_121" x1="115.4" y1="132.154" x2="140.989" y2="96.5601" gradientUnits="userSpaceOnUse">
<stop stop-color="#FF9900"/>
<stop offset="1" stop-color="#FFEE94"/>
</linearGradient>
<linearGradient id="paint5_linear_7_121" x1="72" y1="98" x2="72" y2="116" gradientUnits="userSpaceOnUse">
<stop stop-color="#87CEEB"/>
<stop offset="1" stop-color="#5A8CD7"/>
</linearGradient>
<clipPath id="clip0_7_121">
<rect width="204" height="167" fill="white"/>
</clipPath>
</defs>
</svg>
