<svg width="204" height="167" viewBox="0 0 204 167" fill="none" xmlns="http://www.w3.org/2000/svg">
<path d="M88.8182 113.182H91.4799L89.7647 111.39C89.4523 111.064 89.4634 110.547 89.7898 110.233C90.1146 109.922 90.6336 109.932 90.9463 110.259L93.7453 113.182H96.1818V110.637L93.2711 107.957C92.9387 107.651 92.9171 107.133 93.2231 106.801C93.5292 106.469 94.0469 106.448 94.3793 106.754L96.1818 108.413V105.818C96.1818 105.366 96.5482 105 97 105C97.4519 105 97.8182 105.366 97.8182 105.818V108.48L99.6088 106.765C99.9352 106.452 100.453 106.463 100.766 106.79C101.078 107.116 101.067 107.633 100.741 107.946L97.8182 110.746V113.182H100.697L103.496 110.259C103.808 109.932 104.326 109.922 104.652 110.233C104.979 110.547 104.99 111.064 104.677 111.39L102.962 113.182H105.182C105.634 113.182 106 113.548 106 114C106 114.452 105.634 114.818 105.182 114.818H103.03L104.688 116.62C104.994 116.953 104.973 117.47 104.641 117.776C104.483 117.921 104.285 117.993 104.087 117.993C103.866 117.993 103.646 117.904 103.484 117.729L100.805 114.818H97.8182V117.696L100.741 120.497C101.067 120.809 101.078 121.327 100.766 121.653C100.453 121.98 99.9352 121.992 99.6088 121.678L97.8182 119.962V122.182C97.8182 122.634 97.4519 123 97 123C96.5482 123 96.1818 122.634 96.1818 122.182V120.029L94.3793 121.689C94.2223 121.833 94.0238 121.905 93.8256 121.905C93.6046 121.905 93.3845 121.817 93.2235 121.642C92.9171 121.309 92.9387 120.791 93.2711 120.485L96.1818 117.805V114.818H93.637L90.9576 117.729C90.7961 117.904 90.576 117.993 90.3551 117.993C90.1574 117.993 89.9584 117.921 89.8014 117.776C89.469 117.47 89.4474 116.953 89.7534 116.62L91.4124 114.818H88.8182C88.3664 114.818 88 114.452 88 114C88 113.548 88.3664 113.182 88.8182 113.182Z" fill="url(#paint0_linear_1_2)"/>
<path d="M110.818 106.182H113.48L111.765 104.39C111.452 104.064 111.463 103.547 111.79 103.233C112.115 102.922 112.634 102.932 112.946 103.259L115.745 106.182H118.182V103.637L115.271 100.957C114.939 100.651 114.917 100.133 115.223 99.8009C115.529 99.4686 116.047 99.4478 116.379 99.7538L118.182 101.413V98.8182C118.182 98.3659 118.548 98 119 98C119.452 98 119.818 98.3659 119.818 98.8182V101.48L121.609 99.765C121.935 99.4518 122.453 99.463 122.766 99.7898C123.078 100.116 123.067 100.633 122.741 100.946L119.818 103.746V106.182H122.697L125.496 103.259C125.808 102.932 126.326 102.922 126.652 103.233C126.979 103.547 126.99 104.064 126.677 104.39L124.962 106.182H127.182C127.634 106.182 128 106.548 128 107C128 107.452 127.634 107.818 127.182 107.818H125.03L126.688 109.62C126.994 109.953 126.973 110.47 126.641 110.776C126.483 110.921 126.285 110.993 126.087 110.993C125.866 110.993 125.646 110.904 125.484 110.729L122.805 107.818H119.818V110.696L122.741 113.497C123.067 113.809 123.078 114.327 122.766 114.653C122.453 114.98 121.935 114.992 121.609 114.678L119.818 112.962V115.182C119.818 115.634 119.452 116 119 116C118.548 116 118.182 115.634 118.182 115.182V113.029L116.379 114.689C116.222 114.833 116.024 114.905 115.826 114.905C115.605 114.905 115.385 114.817 115.224 114.642C114.917 114.309 114.939 113.791 115.271 113.485L118.182 110.805V107.818H115.637L112.958 110.729C112.796 110.904 112.576 110.993 112.355 110.993C112.157 110.993 111.958 110.921 111.801 110.776C111.469 110.47 111.447 109.953 111.753 109.62L113.412 107.818H110.818C110.366 107.818 110 107.452 110 107C110 106.548 110.366 106.182 110.818 106.182Z" fill="url(#paint1_linear_1_2)"/>
<g filter="url(#filter0_i_1_2)">
<path d="M82.8847 28.5759C82.9423 28.2333 82.9724 27.8808 82.9724 27.5209C82.9724 24.155 80.3384 21.4264 77.0891 21.4264C74.6736 21.4264 72.598 22.9345 71.692 25.0912C70.9579 24.4348 70.0055 24.0384 68.9645 24.0384C66.6436 24.0384 64.7621 26.0091 64.7621 28.44C64.7621 28.5755 64.768 28.7093 64.7794 28.8415C63.6631 29.408 62.8945 30.5965 62.8945 31.971C62.8945 33.8944 64.3996 35.4536 66.2563 35.4536H82.132C83.9888 35.4536 85.4939 33.8944 85.4939 31.971C85.4939 30.3156 84.3791 28.93 82.8847 28.5759Z" fill="url(#paint2_linear_1_2)"/>
</g>
<g filter="url(#filter1_i_1_2)">
<path d="M137.519 66.4353C137.781 64.9503 137.918 63.4227 137.918 61.8635C137.918 47.2778 125.93 35.4536 111.14 35.4536C100.145 35.4536 90.6974 41.9885 86.5732 51.3347C83.2321 48.4898 78.8966 46.7722 74.1588 46.7722C63.5946 46.7722 55.0306 55.3118 55.0306 65.846C55.0306 66.4326 55.0573 67.0131 55.1092 67.5862C50.028 70.0406 46.5293 75.1908 46.5293 81.1469C46.5293 89.4818 53.3804 96.2384 61.8318 96.2384H134.094C142.544 96.2384 149.396 89.4818 149.396 81.1469C149.396 73.9737 144.321 67.9694 137.519 66.4353Z" fill="url(#paint3_linear_1_2)"/>
</g>
<g filter="url(#filter2_i_1_2)">
<path d="M138.091 40.5138C138.091 41.1935 138.032 41.8595 137.92 42.5069C140.829 43.1757 143 45.7934 143 48.9207C143 52.5543 140.07 55.5 136.455 55.5H126.632C123.942 49.6047 117.935 45.5 110.955 45.5C106.366 45.5 102.198 47.2736 99.1166 50.1635C99.0401 49.761 99 49.3456 99 48.9207C99 46.324 100.497 44.0787 102.67 43.0086C102.648 42.7588 102.636 42.5057 102.636 42.25C102.636 37.6575 106.299 33.9345 110.818 33.9345C112.845 33.9345 114.699 34.6833 116.128 35.9236C117.892 31.8489 121.933 29 126.636 29C132.963 29 138.091 34.1549 138.091 40.5138Z" fill="url(#paint4_linear_1_2)"/>
</g>
<path d="M63.8182 106.182H66.4799L64.7647 104.39C64.4523 104.064 64.4634 103.547 64.7898 103.233C65.1146 102.922 65.6336 102.932 65.9463 103.259L68.7453 106.182H71.1818V103.637L68.2711 100.957C67.9387 100.651 67.9171 100.133 68.2231 99.8009C68.5292 99.4686 69.0469 99.4478 69.3793 99.7538L71.1818 101.413V98.8182C71.1818 98.3659 71.5482 98 72 98C72.4519 98 72.8182 98.3659 72.8182 98.8182V101.48L74.6088 99.765C74.9352 99.4518 75.453 99.463 75.7658 99.7898C76.0781 100.116 76.067 100.633 75.741 100.946L72.8182 103.746V106.182H75.6966L78.4955 103.259C78.8079 102.932 79.3262 102.922 79.6521 103.233C79.9785 103.547 79.9897 104.064 79.6772 104.39L77.962 106.182H80.1818C80.6337 106.182 81 106.548 81 107C81 107.452 80.6337 107.818 80.1818 107.818H78.0295L79.6885 109.62C79.9945 109.953 79.9729 110.47 79.6405 110.776C79.4831 110.921 79.2846 110.993 79.0868 110.993C78.8659 110.993 78.6458 110.904 78.4843 110.729L75.8049 107.818H72.8182V110.696L75.741 113.497C76.0673 113.809 76.0781 114.327 75.7658 114.653C75.453 114.98 74.9352 114.992 74.6088 114.678L72.8182 112.962V115.182C72.8182 115.634 72.4519 116 72 116C71.5482 116 71.1818 115.634 71.1818 115.182V113.029L69.3793 114.689C69.2223 114.833 69.0238 114.905 68.8256 114.905C68.6046 114.905 68.3845 114.817 68.2235 114.642C67.9171 114.309 67.9387 113.791 68.2711 113.485L71.1818 110.805V107.818H68.637L65.9576 110.729C65.7961 110.904 65.576 110.993 65.3551 110.993C65.1574 110.993 64.9584 110.921 64.8014 110.776C64.469 110.47 64.4474 109.953 64.7534 109.62L66.4124 107.818H63.8182C63.3664 107.818 63 107.452 63 107C63 106.548 63.3664 106.182 63.8182 106.182Z" fill="url(#paint5_linear_1_2)"/>
<defs>
<filter id="filter0_i_1_2" x="62.8945" y="21.4264" width="22.5995" height="29.6131" filterUnits="userSpaceOnUse" color-interpolation-filters="sRGB">
<feFlood flood-opacity="0" result="BackgroundImageFix"/>
<feBlend mode="normal" in="SourceGraphic" in2="BackgroundImageFix" result="shape"/>
<feColorMatrix in="SourceAlpha" type="matrix" values="0 0 0 0 0 0 0 0 0 0 0 0 0 0 0 0 0 0 127 0" result="hardAlpha"/>
<feOffset dy="17.1444"/>
<feGaussianBlur stdDeviation="7.79292"/>
<feComposite in2="hardAlpha" operator="arithmetic" k2="-1" k3="1"/>
<feColorMatrix type="matrix" values="0 0 0 0 1 0 0 0 0 1 0 0 0 0 1 0 0 0 1 0"/>
<feBlend mode="normal" in2="shape" result="effect1_innerShadow_1_2"/>
</filter>
<filter id="filter1_i_1_2" x="46.5293" y="35.4536" width="102.866" height="76.3706" filterUnits="userSpaceOnUse" color-interpolation-filters="sRGB">
<feFlood flood-opacity="0" result="BackgroundImageFix"/>
<feBlend mode="normal" in="SourceGraphic" in2="BackgroundImageFix" result="shape"/>
<feColorMatrix in="SourceAlpha" type="matrix" values="0 0 0 0 0 0 0 0 0 0 0 0 0 0 0 0 0 0 127 0" result="hardAlpha"/>
<feOffset dy="17.1444"/>
<feGaussianBlur stdDeviation="7.79292"/>
<feComposite in2="hardAlpha" operator="arithmetic" k2="-1" k3="1"/>
<feColorMatrix type="matrix" values="0 0 0 0 1 0 0 0 0 1 0 0 0 0 1 0 0 0 1 0"/>
<feBlend mode="normal" in2="shape" result="effect1_innerShadow_1_2"/>
</filter>
<filter id="filter2_i_1_2" x="99" y="29" width="44" height="36.5" filterUnits="userSpaceOnUse" color-interpolation-filters="sRGB">
<feFlood flood-opacity="0" result="BackgroundImageFix"/>
<feBlend mode="normal" in="SourceGraphic" in2="BackgroundImageFix" result="shape"/>
<feColorMatrix in="SourceAlpha" type="matrix" values="0 0 0 0 0 0 0 0 0 0 0 0 0 0 0 0 0 0 127 0" result="hardAlpha"/>
<feOffset dy="11"/>
<feGaussianBlur stdDeviation="5"/>
<feComposite in2="hardAlpha" operator="arithmetic" k2="-1" k3="1"/>
<feColorMatrix type="matrix" values="0 0 0 0 1 0 0 0 0 1 0 0 0 0 1 0 0 0 1 0"/>
<feBlend mode="normal" in2="shape" result="effect1_innerShadow_1_2"/>
</filter>
<linearGradient id="paint0_linear_1_2" x1="97" y1="105" x2="97" y2="123" gradientUnits="userSpaceOnUse">
<stop stop-color="#87CEEB"/>
<stop offset="1" stop-color="#5A8CD7"/>
</linearGradient>
<linearGradient id="paint1_linear_1_2" x1="119" y1="98" x2="119" y2="116" gradientUnits="userSpaceOnUse">
<stop stop-color="#87CEEB"/>
<stop offset="1" stop-color="#5A8CD7"/>
</linearGradient>
<linearGradient id="paint2_linear_1_2" x1="64.3319" y1="34.2012" x2="87.8502" y2="17.3805" gradientUnits="userSpaceOnUse">
<stop stop-color="white" stop-opacity="0.65"/>
<stop offset="1" stop-color="white" stop-opacity="0.58"/>
</linearGradient>
<linearGradient id="paint3_linear_1_2" x1="53.0721" y1="90.8112" x2="156.503" y2="13.1065" gradientUnits="userSpaceOnUse">
<stop stop-color="white" stop-opacity="0.65"/>
<stop offset="1" stop-color="white" stop-opacity="0.58"/>
</linearGradient>
<linearGradient id="paint4_linear_1_2" x1="140.201" y1="53.1339" x2="95.3549" y2="20.0779" gradientUnits="userSpaceOnUse">
<stop stop-color="white" stop-opacity="0.65"/>
<stop offset="1" stop-color="white" stop-opacity="0.58"/>
</linearGradient>
<linearGradient id="paint5_linear_1_2" x1="72" y1="98" x2="72" y2="116" gradientUnits="userSpaceOnUse">
<stop stop-color="#87CEEB"/>
<stop offset="1" stop-color="#5A8CD7"/>
</linearGradient>
</defs>
</svg>
